<?xml version="1.0" encoding="utf-8"?>
<svg viewBox="0 0 410 404" fill="none" xmlns="http://www.w3.org/2000/svg">
  <g transform="matrix(0, -0.999218, 1.000202, 0, 44.804455, 408.22049)" style="shape-rendering: crispedges;">
    <path d="M 195 157 L 183 131 L 171 128 Z" style="fill: #2c73ff;"/>
    <path d="M 171 128 L 149 168 L 195 157 Z" style="fill: #2b71ff;"/>
    <path d="M 149 168 L 160 186 L 195 157 Z" style="fill: #296cfe;"/>
    <path d="M 171 128 L 135 165 L 149 168 Z" style="fill: #2c75fe;"/>
    <path d="M 149 168 L 121 193 L 160 186 Z" style="fill: #2a6efe;"/>
    <path d="M 228 198 L 227 152 L 195 157 Z" style="fill: #2761ff;"/>
    <path d="M 195 157 L 227 152 L 183 131 Z" style="fill: #2a6cff;"/>
    <path d="M 221 96 L 190 99 L 183 131 Z" style="fill: #2d79ff;"/>
    <path d="M 183 131 L 190 99 L 171 128 Z" style="fill: #2d7aff;"/>
    <path d="M 171 128 L 129 109 L 135 165 Z" style="fill: #2e7dfe;"/>
    <path d="M 160 186 L 204 200 L 195 157 Z" style="fill: #2864fe;"/>
    <path d="M 136 98 L 129 109 L 171 128 Z" style="fill: #2f84fe;"/>
    <path d="M 149 91 L 136 98 L 171 128 Z" style="fill: #2f84fe;"/>
    <path d="M 94 181 L 121 193 L 135 165 Z" style="fill: #2c75fe;"/>
    <path d="M 135 165 L 121 193 L 149 168 Z" style="fill: #2c73ff;"/>
    <path d="M 160 186 L 188 215 L 204 200 Z" style="fill: #265efe;"/>
    <path d="M 151 219 L 188 215 L 160 186 Z" style="fill: #2761ff;"/>
    <path d="M 190 99 L 149 91 L 171 128 Z" style="fill: #2e80fe;"/>
    <path d="M 121 193 L 151 219 L 160 186 Z" style="fill: #2968fe;"/>
    <path d="M 228 227 L 228 198 L 204 200 Z" style="fill: #2452fe;"/>
    <path d="M 204 200 L 228 198 L 195 157 Z" style="fill: #275dff;"/>
    <path d="M 243 125 L 221 96 L 183 131 Z" style="fill: #2b72fe;"/>
    <path d="M 190 99 L 156 56 L 149 91 Z" style="fill: #3089fe;"/>
    <path d="M 260 167 L 243 125 L 227 152 Z" style="fill: #2761fe;"/>
    <path d="M 227 152 L 243 125 L 183 131 Z" style="fill: #296bfe;"/>
    <path d="M 121 193 L 134 220 L 151 219 Z" style="fill: #2967ff;"/>
    <path d="M 78 145 L 94 181 L 135 165 Z" style="fill: #2e7dfe;"/>
    <path d="M 98 81 L 88 126 L 129 109 Z" style="fill: #3291ff;"/>
    <path d="M 129 109 L 88 126 L 135 165 Z" style="fill: #3085ff;"/>
    <path d="M 228 198 L 260 167 L 227 152 Z" style="fill: #255afe;"/>
    <path d="M 88 126 L 78 145 L 135 165 Z" style="fill: #2f85ff;"/>
    <path d="M 188 215 L 228 227 L 204 200 Z" style="fill: #2454fe;"/>
    <path d="M 228 198 L 269 198 L 260 167 Z" style="fill: #2351fe;"/>
    <path d="M 193 252 L 228 227 L 188 215 Z" style="fill: #2450ff;"/>
    <path d="M 155 252 L 188 215 L 151 219 Z" style="fill: #265aff;"/>
    <path d="M 196 47 L 156 56 L 190 99 Z" style="fill: #318bff;"/>
    <path d="M 149 91 L 128 53 L 136 98 Z" style="fill: #3290ff;"/>
    <path d="M 136 98 L 98 81 L 129 109 Z" style="fill: #328ffe;"/>
    <path d="M 139 254 L 151 219 L 134 220 Z" style="fill: #275fff;"/>
    <path d="M 139 254 L 155 252 L 151 219 Z" style="fill: #2559fe;"/>
    <path d="M 260 167 L 264 111 L 243 125 Z" style="fill: #2762fe;"/>
    <path d="M 243 125 L 264 111 L 221 96 Z" style="fill: #2b6eff;"/>
    <path d="M 221 96 L 196 47 L 190 99 Z" style="fill: #2f81ff;"/>
    <path d="M 155 252 L 193 252 L 188 215 Z" style="fill: #2452fe;"/>
    <path d="M 128 53 L 98 81 L 136 98 Z" style="fill: #3496ff;"/>
    <path d="M 155 252 L 189 286 L 193 252 Z" style="fill: #234bff;"/>
    <path d="M 228 227 L 269 198 L 228 198 Z" style="fill: #224dfe;"/>
    <path d="M 312 152 L 297 111 L 264 111 Z" style="fill: #275dff;"/>
    <path d="M 268 229 L 269 198 L 228 227 Z" style="fill: #2147fe;"/>
    <path d="M 240 52 L 196 47 L 221 96 Z" style="fill: #2f82ff;"/>
    <path d="M 153 21 L 128 53 L 156 56 Z" style="fill: #359bff;"/>
    <path d="M 156 56 L 128 53 L 149 91 Z" style="fill: #3394ff;"/>
    <path d="M 64 131 L 78 145 L 88 126 Z" style="fill: #318eff;"/>
    <path d="M 60 88 L 64 131 L 88 126 Z" style="fill: #3496ff;"/>
    <path d="M 264 111 L 261 83 L 221 96 Z" style="fill: #2b71ff;"/>
    <path d="M 226 285 L 237 251 L 193 252 Z" style="fill: #2042ff;"/>
    <path d="M 193 252 L 237 251 L 228 227 Z" style="fill: #2248ff;"/>
    <path d="M 261 83 L 254 64 L 221 96 Z" style="fill: #2d77ff;"/>
    <path d="M 254 64 L 240 52 L 221 96 Z" style="fill: #2e7cff;"/>
    <path d="M 237 251 L 268 229 L 228 227 Z" style="fill: #2044fe;"/>
    <path d="M 80 56 L 60 88 L 98 81 Z" style="fill: #36a1ff;"/>
    <path d="M 98 81 L 60 88 L 88 126 Z" style="fill: #3498fe;"/>
    <path d="M 268 229 L 296 193 L 269 198 Z" style="fill: #2146fe;"/>
    <path d="M 269 198 L 296 193 L 260 167 Z" style="fill: #234dfe;"/>
    <path d="M 264 111 L 297 111 L 261 83 Z" style="fill: #2968fe;"/>
    <path d="M 312 152 L 264 111 L 260 167 Z" style="fill: #265bff;"/>
    <path d="M 261 83 L 298 59 L 254 64 Z" style="fill: #2c75ff;"/>
    <path d="M 196 47 L 153 21 L 156 56 Z" style="fill: #3396ff;"/>
    <path d="M 128 53 L 80 56 L 98 81 Z" style="fill: #369fff;"/>
    <path d="M 114 11 L 80 56 L 128 53 Z" style="fill: #37a5ff;"/>
    <path d="M 159 303 L 155 252 L 139 254 Z" style="fill: #234ffe;"/>
    <path d="M 159 303 L 189 286 L 155 252 Z" style="fill: #2147fe;"/>
    <path d="M 237 251 L 272 248 L 268 229 Z" style="fill: #203fff;"/>
    <path d="M 258 4 L 224 23 L 240 52 Z" style="fill: #3089fe;"/>
    <path d="M 240 52 L 224 23 L 196 47 Z" style="fill: #318aff;"/>
    <path d="M 258 4 L 240 52 L 254 64 Z" style="fill: #2f82fe;"/>
    <path d="M 296 193 L 312 152 L 260 167 Z" style="fill: #234fff;"/>
    <path d="M 189 286 L 226 285 L 193 252 Z" style="fill: #2041fe;"/>
    <path d="M 80 56 L 62 54 L 60 88 Z" style="fill: #37a6ff;"/>
    <path d="M 80 10 L 62 54 L 80 56 Z" style="fill: #38adfe;"/>
    <path d="M 344 130 L 309 91 L 297 111 Z" style="fill: #265cff;"/>
    <path d="M 297 111 L 309 91 L 261 83 Z" style="fill: #2968ff;"/>
    <path d="M 189 286 L 208 328 L 226 285 Z" style="fill: #1d37fe;"/>
    <path d="M 153 21 L 114 11 L 128 53 Z" style="fill: #36a3fe;"/>
    <path d="M 309 91 L 298 59 L 261 83 Z" style="fill: #2a6dfe;"/>
    <path d="M 226 285 L 266 287 L 237 251 Z" style="fill: #1e38fe;"/>
    <path d="M 312 152 L 344 130 L 297 111 Z" style="fill: #2555fe;"/>
    <path d="M 309 91 L 330 58 L 298 59 Z" style="fill: #296afe;"/>
    <path d="M 114 11 L 80 10 L 80 56 Z" style="fill: #39aeff;"/>
    <path d="M 21 57 L 60 88 L 62 54 Z" style="fill: #38abfe;"/>
    <path d="M 298 59 L 258 4 L 254 64 Z" style="fill: #2e7dfe;"/>
    <path d="M 64 8 L 21 57 L 62 54 Z" style="fill: #3ab3ff;"/>
    <path d="M 159 303 L 208 328 L 189 286 Z" style="fill: #1f3bfe;"/>
    <path d="M 80 10 L 64 8 L 62 54 Z" style="fill: #3ab3ff;"/>
    <path d="M 343 78 L 330 58 L 309 91 Z" style="fill: #2864fe;"/>
    <path d="M 298 59 L 309 13 L 258 4 Z" style="fill: #2e7ffe;"/>
    <path d="M 344 130 L 343 78 L 309 91 Z" style="fill: #265bfe;"/>
    <path d="M 347 10 L 309 13 L 330 58 Z" style="fill: #2c74ff;"/>
    <path d="M 330 58 L 309 13 L 298 59 Z" style="fill: #2c73ff;"/>
    <path d="M 15 5 L 21 57 L 64 8 Z" style="fill: #3dbdff;"/>
    <path d="M 343 78 L 377 59 L 330 58 Z" style="fill: #2863fe;"/>
    <path d="M 377 59 L 347 10 L 330 58 Z" style="fill: #296afe;"/>
    <path d="M 7.5 0 L 15 5 L 17.895 0 Z" style="fill: #40caff;"/>
    <path d="M 392 16.25 L 383 5 L 347 10 L 392 19.375 Z" style="fill: #2a6efe;"/>
    <path d="M 392 26.5 L 392 19.375 L 347 10 L 377 59 Z" style="fill: #2968fe;"/>
    <path d="M 390.727 0 L 377.792 0 L 383 5 Z" style="fill: #2b70fe;"/>
  </g>
  <g transform="matrix(1.000517, 0, 0, 1.001495, -4.554549, 126.445084)" style="shape-rendering: crispedges;">
    <path d="M 172 92 L 195 89 L 165 79 Z" style="fill: rgba(108,199,31,0.58);"/>
    <path d="M 195 89 L 198 70 L 165 79 Z" style="fill: #6bc71f;"/>
    <path d="M 198 128 L 210 102 L 195 89 Z" style="fill: #89c018;"/>
    <path d="M 195 89 L 210 102 L 216 72 Z" style="fill: rgba(128,255,0,0.01);"/>
    <path d="M 199 35 L 167 44 L 198 70 Z" style="fill: #55cb23;"/>
    <path d="M 198 70 L 167 44 L 165 79 Z" style="fill: rgba(105,199,31,0.82);"/>
    <path d="M 216 72 L 199 35 L 198 70 Z" style="fill: rgba(90,200,34,0.15);"/>
    <path d="M 172 92 L 198 128 L 195 89 Z" style="fill: #89c018;"/>
    <path d="M 140 20 L 145 41 L 167 44 Z" style="fill: rgba(128,128,0,0.01);"/>
    <path d="M 165 79 L 131 104 L 172 92 Z" style="fill: #89c018;"/>
    <path d="M 172 92 L 152 137 L 198 128 Z" style="fill: rgba(137,192,24,0.95);"/>
    <path d="M 121 85 L 131 104 L 165 79 Z" style="fill: rgba(147,191,22,0.69);"/>
    <path d="M 252 93 L 239 73 L 210 102 Z" style="fill: #56cb23;"/>
    <path d="M 210 102 L 239 73 L 216 72 Z" style="fill: #56cb23;"/>
    <path d="M 216 72 L 230 37 L 199 35 Z" style="fill: rgba(90,195,30,0.07);"/>
    <path d="M 131 104 L 139 121 L 172 92 Z" style="fill: #94be16;"/>
    <path d="M 145 41 L 121 85 L 165 79 Z" style="fill: #83c21a;"/>
    <path d="M 131 104 L 111 133 L 139 121 Z" style="fill: #acb911;"/>
    <path d="M 199 35 L 188 16 L 167 44 Z" style="fill: rgba(109,182,36,0.03);"/>
    <path d="M 239 73 L 230 37 L 216 72 Z" style="fill: #44cf27;"/>
    <path d="M 177 159 L 214 133 L 198 128 Z" style="fill: #5ec921;"/>
    <path d="M 198 128 L 214 133 L 210 102 Z" style="fill: rgba(128,255,0,0.01);"/>
    <path d="M 139 121 L 152 137 L 172 92 Z" style="fill: #89c018;"/>
    <path d="M 145 41 L 115 56 L 121 85 Z" style="fill: rgba(160,187,20,0.86);"/>
    <path d="M 253 123 L 252 93 L 210 102 Z" style="fill: rgba(69,207,38,0.29);"/>
    <path d="M 239 73 L 247 42 L 230 37 Z" style="fill: #34d32b;"/>
    <path d="M 172 6 L 140 20 L 167 44 Z" style="fill: rgba(131,193,26,0.94);"/>
    <path d="M 101 84 L 112 98 L 121 85 Z" style="fill: #aeb810;"/>
    <path d="M 121 85 L 112 98 L 131 104 Z" style="fill: rgba(148,190,21,0.8);"/>
    <path d="M 174.667 0 L 172.75 0 L 172 6 L 188 16 Z" style="fill: #5fc921;"/>
    <path d="M 188 16 L 172 6 L 167 44 Z" style="fill: rgba(108,201,29,0.31);"/>
    <path d="M 264 57 L 247 42 L 239 73 Z" style="fill: #26d52e;"/>
    <path d="M 228 8 L 199 35 L 230 37 Z" style="fill: #49cd25;"/>
    <path d="M 172 6 L 172.75 0 L 170 0 L 140 20 Z" style="fill: rgba(120,194,27,0.38);"/>
    <path d="M 152 137 L 177 159 L 198 128 Z" style="fill: #79c41c;"/>
    <path d="M 247 42 L 239 21 L 230 37 Z" style="fill: rgba(62,208,40,0.74);"/>
    <path d="M 115 56 L 101 84 L 121 85 Z" style="fill: rgba(182,183,15,0.97);"/>
    <path d="M 152 137 L 165 160 L 177 159 Z" style="fill: #79c41c;"/>
    <path d="M 214 133 L 253 123 L 210 102 Z" style="fill: rgba(85,213,42,0.02);"/>
    <path d="M 239 21 L 228 8 L 230 37 Z" style="fill: rgba(56,210,40,0.57);"/>
    <path d="M 252 93 L 264 57 L 239 73 Z" style="fill: #26d52e;"/>
    <path d="M 247 42 L 261 24 L 239 21 Z" style="fill: rgba(24,217,47,0.51);"/>
    <path d="M 280 84 L 264 57 L 252 93 Z" style="fill: rgba(33,215,46,0.91);"/>
    <path d="M 253 123 L 263 113 L 252 93 Z" style="fill: rgba(0,255,0,0.01);"/>
    <path d="M 81 125 L 111 133 L 112 98 Z" style="fill: #aeb810;"/>
    <path d="M 253 123 L 264 122 L 263 113 Z" style="fill: rgba(26,216,48,0.23);"/>
    <path d="M 263 113 L 280 84 L 252 93 Z" style="fill: #21d62e;"/>
    <path d="M 195.962 176 L 207.385 176 L 214 133 L 177 159 Z" style="fill: #79c41c;"/>
    <path d="M 207.385 176 L 214.333 176 L 231 158 L 214 133 Z" style="fill: #4ecc24;"/>
    <path d="M 264 57 L 261 24 L 247 42 Z" style="fill: rgba(35,212,45,0.84);"/>
    <path d="M 239 21 L 246.241 0 L 238.5 0 L 228 8 Z" style="fill: #25d62e;"/>
    <path d="M 115 56 L 82 66 L 101 84 Z" style="fill: #b6b70f;"/>
    <path d="M 165 160 L 171 175 L 177 159 Z" style="fill: rgba(119,193,28,0.18);"/>
    <path d="M 301 94 L 280 84 L 263 113 Z" style="fill: rgba(33,222,66,0.12);"/>
    <path d="M 264 57 L 294 56 L 261 24 Z" style="fill: #10d931;"/>
    <path d="M 238.5 0 L 227.158 0 L 228 8 Z" style="fill: #25d62e;"/>
    <path d="M 74 46 L 82 66 L 115 56 Z" style="fill: #b6b70f;"/>
    <path d="M 170 0 L 133.333 0 L 140 20 Z" style="fill: #78c41c;"/>
    <path d="M 76 102 L 112 98 L 101 84 Z" style="fill: rgba(187,187,17,0.06);"/>
    <path d="M 261 24 L 252 0 L 246.241 0 L 239 21 Z" style="fill: #3ed028;"/>
    <path d="M 172.938 176 L 174.5 176 L 171 175 Z" style="fill: #79c41c;"/>
    <path d="M 171 175 L 174.5 176 L 195.962 176 L 177 159 Z" style="fill: #79c41c;"/>
    <path d="M 76 102 L 81 125 L 112 98 Z" style="fill: #c2b40c;"/>
    <path d="M 280 84 L 294 56 L 264 57 Z" style="fill: rgba(0,255,0,0.01);"/>
    <path d="M 252 0 L 261 24 L 265 0 Z" style="fill: rgba(62,211,35,0.11);"/>
    <path d="M 171.319 176 L 172.938 176 L 171 175 Z" style="fill: #79c41c;"/>
    <path d="M 274 162 L 290 130 L 264 122 Z" style="fill: #1bd830;"/>
    <path d="M 264 122 L 290 130 L 263 113 Z" style="fill: #1bd830;"/>
    <path d="M 290 130 L 301 94 L 263 113 Z" style="fill: #0fda32;"/>
    <path d="M 299 26 L 277.105 0 L 265 0 L 261 24 Z" style="fill: #02dc34;"/>
    <path d="M 294 56 L 299 26 L 261 24 Z" style="fill: #10d931;"/>
    <path d="M 290 130 L 319 92 L 301 94 Z" style="fill: rgba(36,223,64,0.44);"/>
    <path d="M 324 135.132 L 324 101.583 L 319 92 L 290 130 Z" style="fill: rgba(130,228,92,0.18);"/>
    <path d="M 324 93.042 L 324 88.75 L 319 92 Z" style="fill: rgba(132,228,91,0.22);"/>
    <path d="M 324 101.583 L 324 93.042 L 319 92 Z" style="fill: rgba(132,228,91,0.22);"/>
  </g>
</svg>